<svg xmlns="http://www.w3.org/2000/svg" xmlns:xlink="http://www.w3.org/1999/xlink" id="processonSvg1000" viewBox="102.0 68.0 874.0 560.0" width="874.0" height="560.0"><defs id="ProcessOnDefs1001"><marker id="ProcessOnMarker1055" markerUnits="userSpaceOnUse" orient="auto" markerWidth="16.23606797749979" markerHeight="10.550836550532098" viewBox="-1.0 -1.3763819204711736 16.23606797749979 10.550836550532098" refX="-1.0" refY="3.8990363547948754"><path id="ProcessOnPath1056" d="M12.0 3.8990363547948754L0.0 7.798072709589751V0.0Z" stroke="#323232" stroke-width="2.0" fill="#323232" transform="matrix(1.0,0.0,0.0,1.0,0.0,0.0)"/></marker></defs><g id="ProcessOnG1002"><path id="ProcessOnPath1003" d="M102.0 68.0H976.0V628.0H102.0V68.0Z" fill="#ffffff"/><g id="ProcessOnG1004"><g id="ProcessOnG1005" transform="matrix(1.0,0.0,0.0,1.0,122.0,88.0)" opacity="1.0"><path id="ProcessOnPath1006" d="M0.0 25.0L217.0 25.0Q221.0 25.0 221.0 29.0L221.0 516.0Q221.0 520.0 217.0 520.0L4.0 520.0Q0.0 520.0 0.0 516.0Z" stroke="#323232" stroke-width="2.0" stroke-dasharray="none" opacity="1.0" fill="#ffffff"/><path id="ProcessOnPath1007" d="M0.0 4.0Q0.0 0.0 4.0 0.0L150.7 0.0Q154.7 0.0 157.7 3.0L167.96 25.0L0.0 25.0Z" stroke="#323232" stroke-width="2.0" stroke-dasharray="none" opacity="1.0" fill="#ffffff"/><path id="ProcessOnPath1008" d="M0.0 0.0L154.7 0.0L167.96 25.0L221.0 25.0L221.0 520.0L0.0 520.0Z" stroke="#323232" stroke-width="0.0" stroke-dasharray="none" opacity="1.0" fill="none"/><g id="ProcessOnG1009" transform="matrix(1.0,0.0,0.0,1.0,10.0,4.375)"><text id="ProcessOnText1010" fill="#000000" font-weight="bold" font-style="normal" text-decoration="blink" font-family="微软雅黑" text-anchor="start" font-size="13" x="0.0" y="13.325">工作区（work space）</text></g><g id="ProcessOnG1011" transform="matrix(1.0,0.0,0.0,1.0,10.0,264.375)"><text id="ProcessOnText1012" fill="#000000" font-weight="bold" font-style="normal" text-decoration="blink" font-family="微软雅黑" text-anchor="start" font-size="13" x="0.0" y="13.325"></text></g></g><g id="ProcessOnG1013" transform="matrix(1.0,0.0,0.0,1.0,437.0,88.0)" opacity="1.0"><path id="ProcessOnPath1014" d="M0.0 25.0L515.0 25.0Q519.0 25.0 519.0 29.0L519.0 516.0Q519.0 520.0 515.0 520.0L4.0 520.0Q0.0 520.0 0.0 516.0Z" stroke="#323232" stroke-width="2.0" stroke-dasharray="none" opacity="1.0" fill="#ffffff"/><path id="ProcessOnPath1015" d="M0.0 4.0Q0.0 0.0 4.0 0.0L359.29999999999995 0.0Q363.29999999999995 0.0 366.29999999999995 3.0L394.44 25.0L0.0 25.0Z" stroke="#323232" stroke-width="2.0" stroke-dasharray="none" opacity="1.0" fill="#ffffff"/><path id="ProcessOnPath1016" d="M0.0 0.0L363.29999999999995 0.0L394.44 25.0L519.0 25.0L519.0 520.0L0.0 520.0Z" stroke="#323232" stroke-width="0.0" stroke-dasharray="none" opacity="1.0" fill="none"/><g id="ProcessOnG1017" transform="matrix(1.0,0.0,0.0,1.0,10.0,4.375)"><text id="ProcessOnText1018" fill="#000000" font-weight="bold" font-style="normal" text-decoration="blink" font-family="微软雅黑" text-anchor="start" font-size="13" x="0.0" y="13.325">版本库</text></g><g id="ProcessOnG1019" transform="matrix(1.0,0.0,0.0,1.0,10.0,264.375)"><text id="ProcessOnText1020" fill="#000000" font-weight="bold" font-style="normal" text-decoration="blink" font-family="微软雅黑" text-anchor="start" font-size="13" x="0.0" y="13.325"></text></g></g><g id="ProcessOnG1021" transform="matrix(1.0,0.0,0.0,1.0,488.0,198.0)" opacity="1.0"><path id="ProcessOnPath1022" d="M0.0 25.0L151.0 25.0Q155.0 25.0 155.0 29.0L155.0 353.0Q155.0 357.0 151.0 357.0L4.0 357.0Q0.0 357.0 0.0 353.0Z" stroke="#323232" stroke-width="2.0" stroke-dasharray="none" opacity="1.0" fill="#ffffff"/><path id="ProcessOnPath1023" d="M0.0 4.0Q0.0 0.0 4.0 0.0L104.5 0.0Q108.5 0.0 111.5 3.0L117.8 25.0L0.0 25.0Z" stroke="#323232" stroke-width="2.0" stroke-dasharray="none" opacity="1.0" fill="#ffffff"/><path id="ProcessOnPath1024" d="M0.0 0.0L108.5 0.0L117.8 25.0L155.0 25.0L155.0 357.0L0.0 357.0Z" stroke="#323232" stroke-width="0.0" stroke-dasharray="none" opacity="1.0" fill="none"/><g id="ProcessOnG1025" transform="matrix(1.0,0.0,0.0,1.0,10.0,4.375)"><text id="ProcessOnText1026" fill="#000000" font-weight="bold" font-style="normal" text-decoration="blink" font-family="微软雅黑" text-anchor="start" font-size="13" x="0.0" y="13.325">stage</text></g><g id="ProcessOnG1027" transform="matrix(1.0,0.0,0.0,1.0,10.0,182.875)"><text id="ProcessOnText1028" fill="#000000" font-weight="bold" font-style="normal" text-decoration="blink" font-family="微软雅黑" text-anchor="start" font-size="13" x="0.0" y="13.325"></text></g></g><g id="ProcessOnG1029" transform="matrix(1.0,0.0,0.0,1.0,739.0,198.0)" opacity="1.0"><path id="ProcessOnPath1030" d="M0.0 25.0L159.0 25.0Q163.0 25.0 163.0 29.0L163.0 353.0Q163.0 357.0 159.0 357.0L4.0 357.0Q0.0 357.0 0.0 353.0Z" stroke="#323232" stroke-width="2.0" stroke-dasharray="none" opacity="1.0" fill="#ffffff"/><path id="ProcessOnPath1031" d="M0.0 4.0Q0.0 0.0 4.0 0.0L110.1 0.0Q114.1 0.0 117.1 3.0L123.88 25.0L0.0 25.0Z" stroke="#323232" stroke-width="2.0" stroke-dasharray="none" opacity="1.0" fill="#ffffff"/><path id="ProcessOnPath1032" d="M0.0 0.0L114.1 0.0L123.88 25.0L163.0 25.0L163.0 357.0L0.0 357.0Z" stroke="#323232" stroke-width="0.0" stroke-dasharray="none" opacity="1.0" fill="none"/><g id="ProcessOnG1033" transform="matrix(1.0,0.0,0.0,1.0,10.0,4.375)"><text id="ProcessOnText1034" fill="#000000" font-weight="bold" font-style="normal" text-decoration="blink" font-family="微软雅黑" text-anchor="start" font-size="13" x="0.0" y="13.325">master</text></g><g id="ProcessOnG1035" transform="matrix(1.0,0.0,0.0,1.0,10.0,182.875)"><text id="ProcessOnText1036" fill="#000000" font-weight="bold" font-style="normal" text-decoration="blink" font-family="微软雅黑" text-anchor="start" font-size="13" x="0.0" y="13.325"></text></g></g><g id="ProcessOnG1037" transform="matrix(1.0,0.0,0.0,1.0,727.0,124.0)" opacity="1.0"><path id="ProcessOnPath1038" d="M0.0 4.0Q0.0 0.0 4.0 0.0L63.0 0.0Q67.0 0.0 67.0 4.0L67.0 26.0Q67.0 30.0 63.0 30.0L4.0 30.0Q0.0 30.0 0.0 26.0Z" stroke="#323232" stroke-width="2.0" stroke-dasharray="none" opacity="1.0" fill="#ffffff"/><g id="ProcessOnG1039" transform="matrix(1.0,0.0,0.0,1.0,10.0,6.875)"><text id="ProcessOnText1040" fill="#000000" font-weight="normal" font-style="normal" text-decoration="blink" font-family="微软雅黑" text-anchor="middle" font-size="13" x="23.5" y="13.325">HEAD</text></g></g><g id="ProcessOnG1041" transform="matrix(1.0,0.0,0.0,1.0,179.75,271.0)" opacity="1.0"><path id="ProcessOnPath1042" d="M0.0 0.0L89.5 0.0L105.5 16.0L105.5 52.0L0.0 52.0L0.0 0.0Z" stroke="#323232" stroke-width="2.0" stroke-dasharray="none" opacity="1.0" fill="#ffffff"/><path id="ProcessOnPath1043" d="M89.5 0.0L89.5 16.0L105.5 16.0" stroke="#323232" stroke-width="2.0" stroke-dasharray="none" opacity="1.0" fill="#ffffff"/><path id="ProcessOnPath1044" d="M0.0 0.0L89.5 0.0L105.5 16.0L105.5 52.0L0.0 52.0L0.0 0.0Z" stroke="#323232" stroke-width="2.0" stroke-dasharray="none" opacity="1.0" fill="none"/><g id="ProcessOnG1045" transform="matrix(1.0,0.0,0.0,1.0,10.0,17.875)"><text id="ProcessOnText1046" fill="#000000" font-weight="normal" font-style="normal" text-decoration="blink" font-family="微软雅黑" text-anchor="middle" font-size="13" x="42.75" y="13.325">File.txt</text></g></g><g id="ProcessOnG1047" transform="matrix(1.0,0.0,0.0,1.0,182.5,361.5)" opacity="1.0"><path id="ProcessOnPath1048" d="M0.0 0.0L84.0 0.0L100.0 16.0L100.0 50.5L0.0 50.5L0.0 0.0Z" stroke="#323232" stroke-width="2.0" stroke-dasharray="none" opacity="1.0" fill="#ffffff"/><path id="ProcessOnPath1049" d="M84.0 0.0L84.0 16.0L100.0 16.0" stroke="#323232" stroke-width="2.0" stroke-dasharray="none" opacity="1.0" fill="#ffffff"/><path id="ProcessOnPath1050" d="M0.0 0.0L84.0 0.0L100.0 16.0L100.0 50.5L0.0 50.5L0.0 0.0Z" stroke="#323232" stroke-width="2.0" stroke-dasharray="none" opacity="1.0" fill="none"/><g id="ProcessOnG1051" transform="matrix(1.0,0.0,0.0,1.0,10.0,17.125)"><text id="ProcessOnText1052" fill="#000000" font-weight="normal" font-style="normal" text-decoration="blink" font-family="微软雅黑" text-anchor="middle" font-size="13" x="40.0" y="13.325">README.md</text></g></g><g id="ProcessOnG1053"><path id="ProcessOnPath1054" d="M760.5 154.0L760.5 176.0L820.5 176.0L820.5 182.7639320225002" stroke="#323232" stroke-width="2.0" stroke-dasharray="none" fill="none" marker-end="url(#ProcessOnMarker1055)"/></g></g></g></svg>